<svg id="Layer_1" data-name="Layer 1" xmlns="http://www.w3.org/2000/svg" viewBox="0 0 1275 722"><defs><style>.cls-1{fill:#fff;}.cls-2{opacity:0.2;}.cls-3{fill:#f7d119;}.cls-4{fill:#231f20;}</style></defs><title>bookingSteps_bg</title><rect class="cls-1" width="1275" height="722"/><g class="cls-2"><path class="cls-3" d="M1094.49,255.81A12.86,12.86,0,0,0,1107.35,243V108.45a12.86,12.86,0,0,0-12.86-12.86H603.28c-29.37,29.37-58.73,130.85-88.1,160.22Z"/><path class="cls-3" d="M433.78,255.81c29.36-29.37,58.73-130.85,88.1-160.22H481.74C452.37,125,423,226.44,393.63,255.81Z"/><path class="cls-3" d="M494.55,255.81c29.37-29.37,58.73-130.85,88.1-160.22H542.51c-29.37,29.37-58.74,130.85-88.1,160.22Z"/><path class="cls-3" d="M45.72,255.81H373C402.37,226.44,431.74,125,461.1,95.59H45.72a12.86,12.86,0,0,0-12.86,12.86V243A12.86,12.86,0,0,0,45.72,255.81Z"/><path class="cls-4" d="M600.59,153.44a7.86,7.86,0,0,0-5.12,1.61,5.66,5.66,0,0,0-2,4.65,5.3,5.3,0,0,0,2.34,4.66,16.08,16.08,0,0,0,5.68,2.34c2.21.49,4.43,1.06,6.65,1.69a12,12,0,0,1,5.68,3.55c1.56,1.73,2.34,4.17,2.34,7.34a11.41,11.41,0,0,1-4,8.5q-4,3.76-10.73,3.76t-10.91-3.14a10.27,10.27,0,0,1-4.19-8.69h7.52a6.52,6.52,0,0,0,2.1,4.5,7.85,7.85,0,0,0,5.42,1.66A8.09,8.09,0,0,0,607,184a6.11,6.11,0,0,0,.8-8.32,7.76,7.76,0,0,0-3.26-2.13,41.82,41.82,0,0,0-4.41-1.26c-1.6-.37-3.22-.8-4.84-1.3a20.71,20.71,0,0,1-4.44-1.91,8.91,8.91,0,0,1-3.27-3.42,12.32,12.32,0,0,1,2.78-14.55,15.64,15.64,0,0,1,10.48-3.42q6.43,0,10.29,3a11.33,11.33,0,0,1,4.29,8.57h-7.77a6.17,6.17,0,0,0-2.1-4.13A7.17,7.17,0,0,0,600.59,153.44Z"/><path class="cls-4" d="M641,162.88h-8.26v18.8a3.62,3.62,0,0,0,.89,2.74,4.44,4.44,0,0,0,3.06.84H641v5.85h-5.55q-9.79,0-9.8-9.43v-18.8h-4v-5.74h4V148.7h7.09v8.44H641Z"/><path class="cls-4" d="M661.75,191.67a16,16,0,0,1-12-4.81Q645.1,182,645.1,174.1t4.69-12.73a16.19,16.19,0,0,1,12.11-4.78q7.43,0,12.05,4.59a16.13,16.13,0,0,1,4.63,12,20.49,20.49,0,0,1-.25,3.33h-26a9.7,9.7,0,0,0,2.87,6.75,9.14,9.14,0,0,0,6.57,2.5q5.73,0,8.07-4.75h7.59a15.28,15.28,0,0,1-5.61,7.68A16.56,16.56,0,0,1,661.75,191.67ZM668.47,165a9.41,9.41,0,0,0-6.6-2.49,9.05,9.05,0,0,0-6.5,2.49,10.08,10.08,0,0,0-3,6.69h18.86A8.84,8.84,0,0,0,668.47,165Z"/><path class="cls-4" d="M704.35,156.59a15,15,0,0,1,11.4,4.84c3,3.22,4.56,7.42,4.56,12.57s-1.53,9.4-4.59,12.7a14.87,14.87,0,0,1-11.37,5,13.05,13.05,0,0,1-7-1.88,14,14,0,0,1-4.81-5v22.5h-7V157.14h7v6a13.25,13.25,0,0,1,4.78-4.77A13.45,13.45,0,0,1,704.35,156.59Zm5.73,25.8a11.55,11.55,0,0,0,3.08-8.42,11.09,11.09,0,0,0-3-8.26,10.2,10.2,0,0,0-14.55.06,12.93,12.93,0,0,0,0,16.68,10,10,0,0,0,14.52-.06Z"/><path class="cls-4" d="M725.74,166.88a9.11,9.11,0,0,1,3.64-7.3q3.63-3,9.55-3t9.41,2.93a10.62,10.62,0,0,1,3.73,8h-7.22a5.64,5.64,0,0,0-1.76-3.95,6.34,6.34,0,0,0-4.4-1.41,7,7,0,0,0-4.44,1.26,4,4,0,0,0-1.6,3.33,3.58,3.58,0,0,0,2,3.24,15.87,15.87,0,0,0,5,1.72c2,.37,3.91.83,5.86,1.36a10.52,10.52,0,0,1,5,2.93,7.9,7.9,0,0,1,2,5.7,8.6,8.6,0,0,1-3.73,7.21,15.67,15.67,0,0,1-9.59,2.78,15,15,0,0,1-9.49-2.84,10.62,10.62,0,0,1-4-8.08H733a5.48,5.48,0,0,0,1.85,3.95,6.74,6.74,0,0,0,4.53,1.42,7.42,7.42,0,0,0,4.57-1.27,4,4,0,0,0,1.69-3.35,3.62,3.62,0,0,0-2-3.27,16.36,16.36,0,0,0-5-1.76q-2.93-.58-5.85-1.36a10.67,10.67,0,0,1-5-2.8A7.37,7.37,0,0,1,725.74,166.88Z"/><path class="cls-4" d="M793.46,191.67a16.56,16.56,0,0,1-12.24-4.84q-4.8-4.85-4.8-12.7t5-12.7a18.2,18.2,0,0,1,24.72,0q5,4.83,5,12.67A16.79,16.79,0,0,1,806,186.8,17.45,17.45,0,0,1,793.46,191.67Zm7.31-9c2.05-2.06,3.08-4.91,3.08-8.57s-1-6.51-3-8.54a9.74,9.74,0,0,0-7.24-3.05,9.44,9.44,0,0,0-7.15,3.05c-1.94,2-2.9,4.89-2.9,8.57s.94,6.53,2.83,8.57a9.27,9.27,0,0,0,7.06,3.05A10,10,0,0,0,800.77,182.67Z"/><path class="cls-4" d="M832.27,157.14v5.74H826v28.23h-7.09V162.88h-4v-5.74h4v-2.4c0-3.91,1-6.75,3.12-8.54s5.33-2.68,9.77-2.68v5.85c-2.14,0-3.64.41-4.5,1.21s-1.3,2.19-1.3,4.16v2.4Z"/><path class="cls-4" d="M857,148.27h16.34q6.6,0,10.23,3.2a10.36,10.36,0,0,1,3.64,8.14q0,7.21-8.32,9.49a10.81,10.81,0,0,1,6.75,3.73,10.63,10.63,0,0,1,2.56,7,10.08,10.08,0,0,1-3.83,8.11c-2.54,2.11-6,3.17-10.23,3.17H857Zm7,5.48v12.7h8.69a8.05,8.05,0,0,0,5.4-1.66,5.82,5.82,0,0,0,1.94-4.66,5.9,5.9,0,0,0-1.94-4.68,8,8,0,0,0-5.4-1.7Zm0,31.88h9.49a8.2,8.2,0,0,0,5.61-1.79,6.26,6.26,0,0,0,2-5,6.36,6.36,0,0,0-2.16-5.05,8.43,8.43,0,0,0-5.73-1.88H864Z"/><path class="cls-4" d="M910.6,191.67a16.53,16.53,0,0,1-12.24-4.84q-4.82-4.85-4.81-12.7t5-12.7a18.21,18.21,0,0,1,24.73,0q4.95,4.83,5,12.67a16.8,16.8,0,0,1-5.09,12.7A17.42,17.42,0,0,1,910.6,191.67Zm7.3-9c2.06-2.06,3.08-4.91,3.08-8.57s-1-6.51-3-8.54a9.72,9.72,0,0,0-7.24-3.05,9.44,9.44,0,0,0-7.15,3.05q-2.9,3-2.9,8.57c0,3.68.95,6.53,2.84,8.57a9.25,9.25,0,0,0,7.06,3.05A10,10,0,0,0,917.9,182.67Z"/><path class="cls-4" d="M949.93,191.67a16.56,16.56,0,0,1-12.24-4.84q-4.8-4.85-4.81-12.7t5-12.7a18.2,18.2,0,0,1,24.72,0q5,4.83,5,12.67a16.8,16.8,0,0,1-5.09,12.7A17.42,17.42,0,0,1,949.93,191.67Zm7.3-9c2.06-2.06,3.09-4.91,3.09-8.57s-1-6.51-3-8.54a9.76,9.76,0,0,0-7.25-3.05,9.45,9.45,0,0,0-7.15,3.05q-2.89,3-2.9,8.57c0,3.68,1,6.53,2.84,8.57a9.25,9.25,0,0,0,7.06,3.05A10,10,0,0,0,957.23,182.67Z"/><path class="cls-4" d="M981.52,191.11h-7V145.49h7V172l12.33-14.86h9.75l-15.66,17,15.66,17h-9.5L981.52,176.5Z"/><path class="cls-4" d="M1016.66,148.14a4.37,4.37,0,0,1-1.29,3.21,4.55,4.55,0,0,1-6.35,0,4.6,4.6,0,0,1,0-6.41,4.53,4.53,0,0,1,6.35,0A4.35,4.35,0,0,1,1016.66,148.14Zm-8,43v-34h7v34Z"/><path class="cls-4" d="M1032,157.14v5.37q3.39-5.92,10.85-5.92a12.66,12.66,0,0,1,9.47,3.82q3.72,3.83,3.73,10.67v20h-7v-19q0-4.56-2.28-7a9.2,9.2,0,0,0-12.48,0q-2.32,2.43-2.32,7v19h-7v-34Z"/><path class="cls-4" d="M1067.22,186.7q-4.63-4.95-4.63-12.7c0-5.15,1.53-9.35,4.6-12.57a15.1,15.1,0,0,1,11.43-4.84,13.45,13.45,0,0,1,7.06,1.82,12.78,12.78,0,0,1,4.72,4.77v-6h7.09v34.53a16.05,16.05,0,0,1-4.41,11.68q-4.41,4.53-11.75,4.53t-11.89-3.23a11.93,11.93,0,0,1-5.18-8.79h7a7.54,7.54,0,0,0,3.43,4.28,12.16,12.16,0,0,0,6.56,1.64,9,9,0,0,0,6.57-2.59c1.74-1.73,2.62-4.23,2.62-7.52v-6.91a13.5,13.5,0,0,1-4.75,5,13.05,13.05,0,0,1-7,1.88A15,15,0,0,1,1067.22,186.7Zm20.13-4.25a12.93,12.93,0,0,0,0-16.68,10.13,10.13,0,0,0-14.49-.06,11.09,11.09,0,0,0-3,8.26,11.62,11.62,0,0,0,3,8.42,9.69,9.69,0,0,0,7.24,3.17A9.8,9.8,0,0,0,1087.35,182.45Z"/></g></svg>