<svg id="Layer_1" data-name="Layer 1" xmlns="http://www.w3.org/2000/svg" viewBox="0 0 1275 722"><defs><style>.cls-1{fill:#fff;}.cls-2{opacity:0.2;}.cls-3{fill:#f7d119;}.cls-4{fill:#231f20;}</style></defs><title>facility_bg</title><rect class="cls-1" width="1275" height="722"/><g class="cls-2"><path class="cls-3" d="M588.36,167.6a7.58,7.58,0,0,0,7.57-7.58V80.77a7.57,7.57,0,0,0-7.57-7.57H298.93c-17.3,17.3-34.6,77.09-51.91,94.4Z"/><path class="cls-3" d="M199.06,167.6c17.3-17.31,34.61-77.1,51.91-94.4H227.32c-17.31,17.3-34.61,77.09-51.91,94.4Z"/><path class="cls-3" d="M234.87,167.6c17.3-17.31,34.6-77.1,51.91-94.4H263.12c-17.3,17.3-34.6,77.09-51.91,94.4Z"/><path class="cls-3" d="M-29.59,167.6H163.25c17.3-17.31,34.61-77.1,51.91-94.4H-29.59a7.57,7.57,0,0,0-7.57,7.57V160A7.58,7.58,0,0,0-29.59,167.6Z"/><path class="cls-4" d="M315.31,143.18V101.57H339.8v5.32H322.13v12.64h13.78v5.27H322.13v18.38Z"/><path class="cls-4" d="M348.36,138.9a17.42,17.42,0,0,1-4.49-12.34q0-7.52,4.46-12.21a14.7,14.7,0,0,1,11.11-4.7,13.18,13.18,0,0,1,6.85,1.76,12.45,12.45,0,0,1,4.58,4.65v-5.87h6.89v33h-6.89V137a13,13,0,0,1-4.61,4.88,12.6,12.6,0,0,1-6.82,1.83A14.54,14.54,0,0,1,348.36,138.9Zm19.55-4.13a11.12,11.12,0,0,0,3-8.12,11,11,0,0,0-3-8.08,9.84,9.84,0,0,0-14.07-.06,10.77,10.77,0,0,0-3,8,11.3,11.3,0,0,0,3,8.18,9.44,9.44,0,0,0,7,3.08A9.55,9.55,0,0,0,367.91,134.77Z"/><path class="cls-4" d="M389,139.05q-4.49-4.68-4.49-12.37T389,114.32a15.53,15.53,0,0,1,11.65-4.67,16.5,16.5,0,0,1,9.91,2.84,14,14,0,0,1,5.3,8.12h-7.37q-1.86-5.22-7.84-5.21a8.25,8.25,0,0,0-6.68,3q-2.47,3-2.48,8.29c0,3.56.83,6.33,2.48,8.33a8.25,8.25,0,0,0,6.68,3q5.92,0,7.84-5.21h7.37a14.76,14.76,0,0,1-5.39,8,15.9,15.9,0,0,1-9.82,3A15.5,15.5,0,0,1,389,139.05Z"/><path class="cls-4" d="M430.44,101.45a4.27,4.27,0,1,1-1.25-3.12A4.22,4.22,0,0,1,430.44,101.45Zm-7.78,41.73v-33h6.83v33Z"/><path class="cls-4" d="M438.47,143.18V98.87h6.82v44.31Z"/><path class="cls-4" d="M462.06,101.45a4.37,4.37,0,1,1-4.34-4.37,4.19,4.19,0,0,1,3.08,1.25A4.24,4.24,0,0,1,462.06,101.45Zm-7.79,41.73v-33h6.83v33Z"/><path class="cls-4" d="M486.07,115.76h-8V134a3.49,3.49,0,0,0,.87,2.66,4.33,4.33,0,0,0,3,.81h4.19v5.69h-5.39q-9.53,0-9.52-9.16V115.76h-3.89v-5.57h3.89V102H478v8.2h8Z"/><path class="cls-4" d="M500.14,101.45a4.37,4.37,0,1,1-4.34-4.37,4.19,4.19,0,0,1,3.08,1.25A4.24,4.24,0,0,1,500.14,101.45Zm-7.79,41.73v-33h6.83v33Z"/><path class="cls-4" d="M522.05,143.72a15.5,15.5,0,0,1-11.68-4.67q-4.49-4.68-4.49-12.4t4.55-12.36a16.15,16.15,0,0,1,28,11.46,20.54,20.54,0,0,1-.24,3.24H512.89a9.43,9.43,0,0,0,2.78,6.55,8.87,8.87,0,0,0,6.38,2.43q5.57,0,7.84-4.61h7.37a14.82,14.82,0,0,1-5.45,7.45A16,16,0,0,1,522.05,143.72Zm6.53-25.9a9.17,9.17,0,0,0-6.41-2.42,8.83,8.83,0,0,0-6.32,2.42,9.84,9.84,0,0,0-2.9,6.5h18.32A8.61,8.61,0,0,0,528.58,117.82Z"/><path class="cls-4" d="M543.6,119.65a8.87,8.87,0,0,1,3.54-7.1,14.15,14.15,0,0,1,9.28-2.9q5.75,0,9.13,2.84a10.32,10.32,0,0,1,3.62,7.76h-7a5.47,5.47,0,0,0-1.7-3.84,6.22,6.22,0,0,0-4.28-1.37,6.82,6.82,0,0,0-4.31,1.22,3.93,3.93,0,0,0-1.56,3.24,3.49,3.49,0,0,0,2,3.14,15.41,15.41,0,0,0,4.82,1.68q2.85.54,5.69,1.31a10.24,10.24,0,0,1,4.82,2.85,7.67,7.67,0,0,1,2,5.54,8.34,8.34,0,0,1-3.62,7,15.18,15.18,0,0,1-9.31,2.7,14.52,14.52,0,0,1-9.22-2.76,10.33,10.33,0,0,1-3.9-7.84h7.07A5.32,5.32,0,0,0,552.4,137a6.58,6.58,0,0,0,4.41,1.38,7.25,7.25,0,0,0,4.43-1.23,3.89,3.89,0,0,0,1.64-3.26,3.53,3.53,0,0,0-2-3.18,16.21,16.21,0,0,0-4.82-1.7q-2.85-.57-5.69-1.32a10.49,10.49,0,0,1-4.82-2.72A7.13,7.13,0,0,1,543.6,119.65Z"/></g></svg>