<svg id="Layer_1" data-name="Layer 1" xmlns="http://www.w3.org/2000/svg" viewBox="0 0 1275 722"><defs><style>.cls-1{fill:#fff;}.cls-2{opacity:0.2;}.cls-3{fill:#f7d119;}.cls-4{fill:#231f20;}</style></defs><title>support_bg</title><rect class="cls-1" width="1275" height="722"/><g class="cls-2"><path class="cls-3" d="M1019.11,255.81A12.86,12.86,0,0,0,1032,243V108.45a12.86,12.86,0,0,0-12.86-12.86H487.9C458.54,125,429.17,226.44,399.8,255.81Z"/><path class="cls-3" d="M318.4,255.81C347.77,226.44,377.13,125,406.5,95.59H366.36C337,125,307.63,226.44,278.26,255.81Z"/><path class="cls-3" d="M379.17,255.81c29.37-29.37,58.74-130.85,88.1-160.22H427.13C397.76,125,368.4,226.44,339,255.81Z"/><path class="cls-3" d="M-69.65,255.81H257.63C287,226.44,316.36,125,345.73,95.59H-69.65a12.86,12.86,0,0,0-12.86,12.86V243A12.86,12.86,0,0,0-69.65,255.81Z"/><path class="cls-4" d="M561.89,139.38a15.51,15.51,0,0,0-9,2.42,8,8,0,0,0-3.48,7,7.7,7.7,0,0,0,4.13,7,31,31,0,0,0,10,3.54q5.87,1.13,11.74,2.56a21.93,21.93,0,0,1,10,5.36q4.13,3.92,4.13,11.08t-7.07,12.85q-7.07,5.69-18.92,5.68t-19.25-4.75q-7.39-4.74-7.39-13.13H550a9.43,9.43,0,0,0,3.7,6.8q3.27,2.52,9.57,2.51t10-2.79q3.64-2.79,3.64-6.61a7.86,7.86,0,0,0-2.23-6,13.88,13.88,0,0,0-5.76-3.21c-2.36-.72-4.95-1.35-7.77-1.91s-5.68-1.21-8.54-2a39.47,39.47,0,0,1-7.83-2.88,14.61,14.61,0,0,1-5.76-5.17,14.87,14.87,0,0,1-2.23-8.34,16.07,16.07,0,0,1,7.12-13.64q7.13-5.17,18.49-5.17t18.16,4.47a16.42,16.42,0,0,1,7.55,12.95h-13.7a9,9,0,0,0-3.7-6.24C568.52,140.22,565.58,139.38,561.89,139.38Z"/><path class="cls-4" d="M645.94,145h12.4v51.31h-12.4v-8.1Q640.07,197,626.8,197q-10.11,0-16.69-5.72t-6.58-16.07V145h12.29v28.68q0,6.9,4,10.57t11,3.68q7,0,11-3.68t4.07-10.57Z"/><path class="cls-4" d="M707.92,144.13q12.08,0,20.12,7.31t8.05,19q0,11.69-8.1,19.18t-20.07,7.5a26,26,0,0,1-12.39-2.84,22.93,22.93,0,0,1-8.48-7.59v34h-12.4V145h12.4v9.13a22,22,0,0,1,8.42-7.22A27.05,27.05,0,0,1,707.92,144.13Zm10.12,39a16.11,16.11,0,0,0,5.43-12.71q0-7.9-5.38-12.48a19.22,19.22,0,0,0-12.83-4.56A18.93,18.93,0,0,0,692.43,158q-5.38,4.65-5.38,12.57t5.38,12.62a19.64,19.64,0,0,0,25.61-.1Z"/><path class="cls-4" d="M781.65,144.13q12.08,0,20.12,7.31t8,19q0,11.69-8.1,19.18t-20.06,7.5a26,26,0,0,1-12.4-2.84,23,23,0,0,1-8.48-7.59v34H748.38V145h12.39v9.13a22.08,22.08,0,0,1,8.43-7.22A27.05,27.05,0,0,1,781.65,144.13Zm10.11,39a16.09,16.09,0,0,0,5.44-12.71q0-7.9-5.38-12.48A19.22,19.22,0,0,0,779,153.35,19,19,0,0,0,766.15,158q-5.37,4.65-5.38,12.57t5.38,12.62a19.64,19.64,0,0,0,25.61-.1Z"/><path class="cls-4" d="M848.15,197.12q-13.11,0-21.59-7.31t-8.48-19.19q0-11.87,8.75-19.18t21.8-7.31q13.05,0,21.81,7.31a25.15,25.15,0,0,1-.22,38.32Q861.25,197.13,848.15,197.12ZM861,183.52q5.43-4.65,5.44-12.94t-5.28-12.9a18.74,18.74,0,0,0-12.77-4.61,18.16,18.16,0,0,0-12.62,4.61q-5.12,4.6-5.11,12.94t5,12.95a17.71,17.71,0,0,0,12.46,4.61A19.15,19.15,0,0,0,861,183.52Z"/><path class="cls-4" d="M903.87,145v8.94q5.76-9.78,18-9.78v11h-3.16q-7.29,0-11,3.17t-3.76,11v27H891.48V145Z"/><path class="cls-4" d="M962.27,153.63H947.69V182a5,5,0,0,0,1.58,4.15c1.05.83,2.85,1.25,5.38,1.25h7.62v8.85h-9.79q-17.29,0-17.29-14.25v-28.4h-7.07V145h7.07V132.21h12.5V145h14.58Z"/></g></svg>