<svg id="Layer_1" data-name="Layer 1" xmlns="http://www.w3.org/2000/svg" viewBox="0 0 1275 722"><defs><style>.cls-1{fill:#fff;}.cls-2{opacity:0.2;}.cls-3{fill:#f7d119;}.cls-4{fill:#231f20;}</style></defs><title>tou_bg</title><rect class="cls-1" width="1275" height="722"/><g class="cls-2"><path class="cls-3" d="M1148.11,238.31A12.85,12.85,0,0,0,1161,225.46V91a12.85,12.85,0,0,0-12.86-12.86H487.9C458.54,107.46,429.17,209,399.8,238.31Z"/><path class="cls-3" d="M318.4,238.31C347.77,209,377.13,107.46,406.5,78.1H366.36C337,107.46,307.63,209,278.26,238.31Z"/><path class="cls-3" d="M379.17,238.31C408.54,209,437.91,107.46,467.27,78.1H427.13C397.76,107.46,368.4,209,339,238.31Z"/><path class="cls-3" d="M-69.65,238.31H257.63C287,209,316.36,107.46,345.73,78.1H-69.65A12.85,12.85,0,0,0-82.51,91v134.5A12.85,12.85,0,0,0-69.65,238.31Z"/><path class="cls-4" d="M520.17,138v-8h43.65v8H547.17v54.54H536.91V138Z"/><path class="cls-4" d="M595.05,193.35q-10.8,0-17.55-7t-6.75-18.63q0-11.61,6.84-18.58t17.68-7q10.85,0,17.6,6.71t6.75,17.5a30.81,30.81,0,0,1-.36,4.86h-38a14.18,14.18,0,0,0,4.18,9.86,13.35,13.35,0,0,0,9.59,3.64q8.37,0,11.79-6.93h11.07A22.26,22.26,0,0,1,609.72,189Q603.78,193.36,595.05,193.35Zm9.81-38.92a13.71,13.71,0,0,0-9.63-3.65,13.25,13.25,0,0,0-9.5,3.65,14.73,14.73,0,0,0-4.36,9.76h27.54A12.89,12.89,0,0,0,604.86,154.43Z"/><path class="cls-4" d="M640,143v8.64q4.77-9.45,14.85-9.45v10.62H652.2q-6,0-9.14,3.06T640,166.44v26.1H629.7V143Z"/><path class="cls-4" d="M674.52,143v7.83q5-8.64,15.84-8.64a19.55,19.55,0,0,1,10.26,2.7,17.15,17.15,0,0,1,6.84,7.83,19.38,19.38,0,0,1,7.24-7.74,20,20,0,0,1,10.49-2.79,18.93,18.93,0,0,1,14,5.54q5.49,5.53,5.49,15.61v29.25H734.46V164.82q0-6.66-3.33-10.21a13.39,13.39,0,0,0-18.18,0q-3.33,3.55-3.33,10.21v27.72H699.45V164.82q0-6.66-3.33-10.21a11.85,11.85,0,0,0-9.09-3.56,12,12,0,0,0-9.14,3.56q-3.37,3.55-3.37,10.21v27.72H664.26V143Z"/><path class="cls-4" d="M755.52,157.17a13.29,13.29,0,0,1,5.31-10.66q5.31-4.37,13.95-4.37t13.72,4.28A15.47,15.47,0,0,1,794,158.07H783.41a8.17,8.17,0,0,0-2.56-5.76,9.28,9.28,0,0,0-6.44-2.07,10.2,10.2,0,0,0-6.47,1.85A5.86,5.86,0,0,0,765.6,157a5.22,5.22,0,0,0,3,4.72,23,23,0,0,0,7.24,2.52q4.28.81,8.55,2a15.55,15.55,0,0,1,7.25,4.28,11.57,11.57,0,0,1,3,8.32,12.55,12.55,0,0,1-5.45,10.53q-5.45,4-14,4t-13.86-4.14c-3.55-2.76-5.49-6.69-5.85-11.79H766a8,8,0,0,0,2.71,5.76,9.86,9.86,0,0,0,6.61,2.07,10.89,10.89,0,0,0,6.66-1.84,5.83,5.83,0,0,0,2.48-4.91,5.28,5.28,0,0,0-3-4.77,24,24,0,0,0-7.25-2.56q-4.28-.85-8.55-2a15.67,15.67,0,0,1-7.24-4.1A10.7,10.7,0,0,1,755.52,157.17Z"/><path class="cls-4" d="M854.38,193.35q-10.85,0-17.87-7.06t-7-18.54q0-11.48,7.25-18.54a26.56,26.56,0,0,1,36.09,0q7.24,7.06,7.24,18.49t-7.42,18.54A25.41,25.41,0,0,1,854.38,193.35ZM865,180.21q4.5-4.5,4.5-12.51t-4.36-12.46a14.27,14.27,0,0,0-10.58-4.46,13.83,13.83,0,0,0-10.44,4.46q-4.23,4.45-4.23,12.51t4.14,12.51a13.5,13.5,0,0,0,10.31,4.45A14.56,14.56,0,0,0,865,180.21Z"/><path class="cls-4" d="M911,143v8.37h-9.18v41.22H891.5V151.32h-5.85V143h5.85v-3.51q0-8.55,4.55-12.46t14.26-3.92v8.55q-4.68,0-6.57,1.76t-1.89,6.07V143Z"/><path class="cls-4" d="M947,169.68V130h10.26v39.69q0,7.11,3.74,10.71c2.48,2.4,6,3.6,10.43,3.6s7.95-1.2,10.45-3.6,3.73-6,3.73-10.71V130H995.9v39.69q0,11.34-7.07,17.42t-17.54,6.07q-10.5,0-17.38-6T947,169.68Z"/><path class="cls-4" d="M1007,157.17a13.32,13.32,0,0,1,5.31-10.66q5.31-4.37,14-4.37t13.72,4.28a15.47,15.47,0,0,1,5.45,11.65h-10.53a8.22,8.22,0,0,0-2.57-5.76,9.26,9.26,0,0,0-6.43-2.07,10.22,10.22,0,0,0-6.48,1.85,5.89,5.89,0,0,0-2.34,4.86,5.24,5.24,0,0,0,3,4.72,23.05,23.05,0,0,0,7.24,2.52q4.27.81,8.55,2a15.5,15.5,0,0,1,7.25,4.28,11.53,11.53,0,0,1,3,8.32,12.55,12.55,0,0,1-5.45,10.53q-5.44,4-14,4t-13.86-4.14q-5.31-4.14-5.85-11.79h10.62a8,8,0,0,0,2.7,5.76,9.86,9.86,0,0,0,6.61,2.07,10.89,10.89,0,0,0,6.66-1.84,5.83,5.83,0,0,0,2.48-4.91,5.28,5.28,0,0,0-3-4.77,23.89,23.89,0,0,0-7.25-2.56q-4.28-.85-8.55-2a15.67,15.67,0,0,1-7.24-4.1A10.7,10.7,0,0,1,1007,157.17Z"/><path class="cls-4" d="M1078.16,193.35q-10.8,0-17.55-7t-6.75-18.63q0-11.61,6.84-18.58t17.68-7q10.84,0,17.6,6.71t6.75,17.5a30.81,30.81,0,0,1-.36,4.86h-38a14.18,14.18,0,0,0,4.18,9.86,13.35,13.35,0,0,0,9.59,3.64q8.37,0,11.79-6.93H1101a22.26,22.26,0,0,1-8.19,11.21Q1086.89,193.36,1078.16,193.35Zm9.81-38.92a13.71,13.71,0,0,0-9.63-3.65,13.25,13.25,0,0,0-9.5,3.65,14.73,14.73,0,0,0-4.36,9.76H1092A12.89,12.89,0,0,0,1088,154.43Z"/></g></svg>